<?xml version="1.0" encoding="UTF-8" standalone="no" ?>
<!DOCTYPE svg PUBLIC "-//W3C//DTD SVG 1.1//EN" "http://www.w3.org/Graphics/SVG/1.1/DTD/svg11.dtd">
<svg xmlns="http://www.w3.org/2000/svg" xmlns:xlink="http://www.w3.org/1999/xlink" version="1.1" width="600" height="600" viewBox="0 0 600 600" xml:space="preserve">
<desc>Created with Fabric.js 4.0.0-beta.8</desc>
<defs>
</defs>
<g transform="matrix(1 0 0 1 300.5 300.5)"  >
<rect style="stroke: none; stroke-width: 1; stroke-dasharray: none; stroke-linecap: butt; stroke-dashoffset: 0; stroke-linejoin: miter; stroke-miterlimit: 4; fill: rgb(255,255,255); fill-rule: nonzero; opacity: 1;"  x="-300" y="-300" rx="0" ry="0" width="600" height="600" />
</g>
<g transform="matrix(0.05 0 0 0.05 61.63 75.37)"  >
<path style="stroke: none; stroke-width: 1; stroke-dasharray: none; stroke-linecap: butt; stroke-dashoffset: 0; stroke-linejoin: miter; stroke-miterlimit: 4; fill: rgb(16,75,50); fill-rule: nonzero; opacity: 1;"  transform=" translate(-91, -78.75)" d="M 91 0 L 181.933 157.5 H 0.0673294 L 91 0 Z" stroke-linecap="round" />
</g>
<g transform="matrix(0.06 0 0 0.06 128.9 69.78)"  >
<path style="stroke: none; stroke-width: 1; stroke-dasharray: none; stroke-linecap: butt; stroke-dashoffset: 0; stroke-linejoin: miter; stroke-miterlimit: 4; fill: rgb(16,75,50); fill-rule: nonzero; opacity: 1;"  transform=" translate(-91, -78.75)" d="M 91 0 L 181.933 157.5 H 0.0673294 L 91 0 Z" stroke-linecap="round" />
</g>
<g transform="matrix(0.13 0 0 0.13 199.58 75.48)"  >
<path style="stroke: none; stroke-width: 1; stroke-dasharray: none; stroke-linecap: butt; stroke-dashoffset: 0; stroke-linejoin: miter; stroke-miterlimit: 4; fill: rgb(16,75,50); fill-rule: nonzero; opacity: 1;"  transform=" translate(-91, -78.75)" d="M 91 0 L 181.933 157.5 H 0.0673294 L 91 0 Z" stroke-linecap="round" />
</g>
<g transform="matrix(0.07 0 0 0.07 421.56 55.38)"  >
<path style="stroke: none; stroke-width: 1; stroke-dasharray: none; stroke-linecap: butt; stroke-dashoffset: 0; stroke-linejoin: miter; stroke-miterlimit: 4; fill: rgb(16,75,50); fill-rule: nonzero; opacity: 1;"  transform=" translate(-91, -78.75)" d="M 91 0 L 181.933 157.5 H 0.0673294 L 91 0 Z" stroke-linecap="round" />
</g>
<g transform="matrix(0.1 0 0 0.1 463.36 64.38)"  >
<path style="stroke: none; stroke-width: 1; stroke-dasharray: none; stroke-linecap: butt; stroke-dashoffset: 0; stroke-linejoin: miter; stroke-miterlimit: 4; fill: rgb(16,75,50); fill-rule: nonzero; opacity: 1;"  transform=" translate(-91, -78.75)" d="M 91 0 L 181.933 157.5 H 0.0673294 L 91 0 Z" stroke-linecap="round" />
</g>
<g transform="matrix(0.07 0 0 0.07 136.87 112.07)"  >
<path style="stroke: none; stroke-width: 1; stroke-dasharray: none; stroke-linecap: butt; stroke-dashoffset: 0; stroke-linejoin: miter; stroke-miterlimit: 4; fill: rgb(16,75,50); fill-rule: nonzero; opacity: 1;"  transform=" translate(-91, -78.75)" d="M 91 0 L 181.933 157.5 H 0.0673294 L 91 0 Z" stroke-linecap="round" />
</g>
<g transform="matrix(0.09 0 0 0.09 167.28 126.1)"  >
<path style="stroke: none; stroke-width: 1; stroke-dasharray: none; stroke-linecap: butt; stroke-dashoffset: 0; stroke-linejoin: miter; stroke-miterlimit: 4; fill: rgb(16,75,50); fill-rule: nonzero; opacity: 1;"  transform=" translate(-91, -78.75)" d="M 91 0 L 181.933 157.5 H 0.0673294 L 91 0 Z" stroke-linecap="round" />
</g>
<g transform="matrix(0.11 0 0 0.11 284.15 132.52)"  >
<path style="stroke: none; stroke-width: 1; stroke-dasharray: none; stroke-linecap: butt; stroke-dashoffset: 0; stroke-linejoin: miter; stroke-miterlimit: 4; fill: rgb(16,75,50); fill-rule: nonzero; opacity: 1;"  transform=" translate(-91, -78.75)" d="M 91 0 L 181.933 157.5 H 0.0673294 L 91 0 Z" stroke-linecap="round" />
</g>
<g transform="matrix(0.04 0 0 0.04 320.51 120.28)"  >
<path style="stroke: none; stroke-width: 1; stroke-dasharray: none; stroke-linecap: butt; stroke-dashoffset: 0; stroke-linejoin: miter; stroke-miterlimit: 4; fill: rgb(16,75,50); fill-rule: nonzero; opacity: 1;"  transform=" translate(-91, -78.75)" d="M 91 0 L 181.933 157.5 H 0.0673294 L 91 0 Z" stroke-linecap="round" />
</g>
<g transform="matrix(0.05 0 0 0.05 405.38 118.86)"  >
<path style="stroke: none; stroke-width: 1; stroke-dasharray: none; stroke-linecap: butt; stroke-dashoffset: 0; stroke-linejoin: miter; stroke-miterlimit: 4; fill: rgb(16,75,50); fill-rule: nonzero; opacity: 1;"  transform=" translate(-91, -78.75)" d="M 91 0 L 181.933 157.5 H 0.0673294 L 91 0 Z" stroke-linecap="round" />
</g>
<g transform="matrix(0.04 0 0 0.04 488.37 116.23)"  >
<path style="stroke: none; stroke-width: 1; stroke-dasharray: none; stroke-linecap: butt; stroke-dashoffset: 0; stroke-linejoin: miter; stroke-miterlimit: 4; fill: rgb(16,75,50); fill-rule: nonzero; opacity: 1;"  transform=" translate(-91, -78.75)" d="M 91 0 L 181.933 157.5 H 0.0673294 L 91 0 Z" stroke-linecap="round" />
</g>
<g transform="matrix(0.1 0 0 0.1 48.56 216.04)"  >
<path style="stroke: none; stroke-width: 1; stroke-dasharray: none; stroke-linecap: butt; stroke-dashoffset: 0; stroke-linejoin: miter; stroke-miterlimit: 4; fill: rgb(16,75,50); fill-rule: nonzero; opacity: 1;"  transform=" translate(-91, -78.75)" d="M 91 0 L 181.933 157.5 H 0.0673294 L 91 0 Z" stroke-linecap="round" />
</g>
<g transform="matrix(0.1 0 0 0.1 127.44 194.33)"  >
<path style="stroke: none; stroke-width: 1; stroke-dasharray: none; stroke-linecap: butt; stroke-dashoffset: 0; stroke-linejoin: miter; stroke-miterlimit: 4; fill: rgb(16,75,50); fill-rule: nonzero; opacity: 1;"  transform=" translate(-91, -78.75)" d="M 91 0 L 181.933 157.5 H 0.0673294 L 91 0 Z" stroke-linecap="round" />
</g>
<g transform="matrix(0.05 0 0 0.05 193.14 173.66)"  >
<path style="stroke: none; stroke-width: 1; stroke-dasharray: none; stroke-linecap: butt; stroke-dashoffset: 0; stroke-linejoin: miter; stroke-miterlimit: 4; fill: rgb(16,75,50); fill-rule: nonzero; opacity: 1;"  transform=" translate(-91, -78.75)" d="M 91 0 L 181.933 157.5 H 0.0673294 L 91 0 Z" stroke-linecap="round" />
</g>
<g transform="matrix(0.12 0 0 0.12 262.54 186.84)"  >
<path style="stroke: none; stroke-width: 1; stroke-dasharray: none; stroke-linecap: butt; stroke-dashoffset: 0; stroke-linejoin: miter; stroke-miterlimit: 4; fill: rgb(16,75,50); fill-rule: nonzero; opacity: 1;"  transform=" translate(-91, -78.75)" d="M 91 0 L 181.933 157.5 H 0.0673294 L 91 0 Z" stroke-linecap="round" />
</g>
<g transform="matrix(0.08 0 0 0.08 320.05 183.69)"  >
<path style="stroke: none; stroke-width: 1; stroke-dasharray: none; stroke-linecap: butt; stroke-dashoffset: 0; stroke-linejoin: miter; stroke-miterlimit: 4; fill: rgb(16,75,50); fill-rule: nonzero; opacity: 1;"  transform=" translate(-91, -78.75)" d="M 91 0 L 181.933 157.5 H 0.0673294 L 91 0 Z" stroke-linecap="round" />
</g>
<g transform="matrix(0.12 0 0 0.12 428.29 193.98)"  >
<path style="stroke: none; stroke-width: 1; stroke-dasharray: none; stroke-linecap: butt; stroke-dashoffset: 0; stroke-linejoin: miter; stroke-miterlimit: 4; fill: rgb(16,75,50); fill-rule: nonzero; opacity: 1;"  transform=" translate(-91, -78.75)" d="M 91 0 L 181.933 157.5 H 0.0673294 L 91 0 Z" stroke-linecap="round" />
</g>
<g transform="matrix(0.1 0 0 0.1 498.08 170.11)"  >
<path style="stroke: none; stroke-width: 1; stroke-dasharray: none; stroke-linecap: butt; stroke-dashoffset: 0; stroke-linejoin: miter; stroke-miterlimit: 4; fill: rgb(16,75,50); fill-rule: nonzero; opacity: 1;"  transform=" translate(-91, -78.75)" d="M 91 0 L 181.933 157.5 H 0.0673294 L 91 0 Z" stroke-linecap="round" />
</g>
<g transform="matrix(0.06 0 0 0.06 549.24 170.53)"  >
<path style="stroke: none; stroke-width: 1; stroke-dasharray: none; stroke-linecap: butt; stroke-dashoffset: 0; stroke-linejoin: miter; stroke-miterlimit: 4; fill: rgb(16,75,50); fill-rule: nonzero; opacity: 1;"  transform=" translate(-91, -78.75)" d="M 91 0 L 181.933 157.5 H 0.0673294 L 91 0 Z" stroke-linecap="round" />
</g>
<g transform="matrix(0.06 0 0 0.06 49 261.47)"  >
<path style="stroke: none; stroke-width: 1; stroke-dasharray: none; stroke-linecap: butt; stroke-dashoffset: 0; stroke-linejoin: miter; stroke-miterlimit: 4; fill: rgb(16,75,50); fill-rule: nonzero; opacity: 1;"  transform=" translate(-91, -78.75)" d="M 91 0 L 181.933 157.5 H 0.0673294 L 91 0 Z" stroke-linecap="round" />
</g>
<g transform="matrix(0.1 0 0 0.1 118.39 283.45)"  >
<path style="stroke: none; stroke-width: 1; stroke-dasharray: none; stroke-linecap: butt; stroke-dashoffset: 0; stroke-linejoin: miter; stroke-miterlimit: 4; fill: rgb(16,75,50); fill-rule: nonzero; opacity: 1;"  transform=" translate(-91, -78.75)" d="M 91 0 L 181.933 157.5 H 0.0673294 L 91 0 Z" stroke-linecap="round" />
</g>
<g transform="matrix(0.06 0 0 0.06 184.07 246.12)"  >
<path style="stroke: none; stroke-width: 1; stroke-dasharray: none; stroke-linecap: butt; stroke-dashoffset: 0; stroke-linejoin: miter; stroke-miterlimit: 4; fill: rgb(16,75,50); fill-rule: nonzero; opacity: 1;"  transform=" translate(-91, -78.75)" d="M 91 0 L 181.933 157.5 H 0.0673294 L 91 0 Z" stroke-linecap="round" />
</g>
<g transform="matrix(0.13 0 0 0.13 226.16 243.54)"  >
<path style="stroke: none; stroke-width: 1; stroke-dasharray: none; stroke-linecap: butt; stroke-dashoffset: 0; stroke-linejoin: miter; stroke-miterlimit: 4; fill: rgb(16,75,50); fill-rule: nonzero; opacity: 1;"  transform=" translate(-91, -78.75)" d="M 91 0 L 181.933 157.5 H 0.0673294 L 91 0 Z" stroke-linecap="round" />
</g>
<g transform="matrix(0.05 0 0 0.05 354.82 220.62)"  >
<path style="stroke: none; stroke-width: 1; stroke-dasharray: none; stroke-linecap: butt; stroke-dashoffset: 0; stroke-linejoin: miter; stroke-miterlimit: 4; fill: rgb(16,75,50); fill-rule: nonzero; opacity: 1;"  transform=" translate(-91, -78.75)" d="M 91 0 L 181.933 157.5 H 0.0673294 L 91 0 Z" stroke-linecap="round" />
</g>
<g transform="matrix(0.1 0 0 0.1 409.23 236.34)"  >
<path style="stroke: none; stroke-width: 1; stroke-dasharray: none; stroke-linecap: butt; stroke-dashoffset: 0; stroke-linejoin: miter; stroke-miterlimit: 4; fill: rgb(16,75,50); fill-rule: nonzero; opacity: 1;"  transform=" translate(-91, -78.75)" d="M 91 0 L 181.933 157.5 H 0.0673294 L 91 0 Z" stroke-linecap="round" />
</g>
<g transform="matrix(0.06 0 0 0.06 464.07 281.15)"  >
<path style="stroke: none; stroke-width: 1; stroke-dasharray: none; stroke-linecap: butt; stroke-dashoffset: 0; stroke-linejoin: miter; stroke-miterlimit: 4; fill: rgb(16,75,50); fill-rule: nonzero; opacity: 1;"  transform=" translate(-91, -78.75)" d="M 91 0 L 181.933 157.5 H 0.0673294 L 91 0 Z" stroke-linecap="round" />
</g>
<g transform="matrix(0.09 0 0 0.09 70.69 344.77)"  >
<path style="stroke: none; stroke-width: 1; stroke-dasharray: none; stroke-linecap: butt; stroke-dashoffset: 0; stroke-linejoin: miter; stroke-miterlimit: 4; fill: rgb(16,75,50); fill-rule: nonzero; opacity: 1;"  transform=" translate(-91, -78.75)" d="M 91 0 L 181.933 157.5 H 0.0673294 L 91 0 Z" stroke-linecap="round" />
</g>
<g transform="matrix(0.13 0 0 0.13 109.26 353.31)"  >
<path style="stroke: none; stroke-width: 1; stroke-dasharray: none; stroke-linecap: butt; stroke-dashoffset: 0; stroke-linejoin: miter; stroke-miterlimit: 4; fill: rgb(16,75,50); fill-rule: nonzero; opacity: 1;"  transform=" translate(-91, -78.75)" d="M 91 0 L 181.933 157.5 H 0.0673294 L 91 0 Z" stroke-linecap="round" />
</g>
<g transform="matrix(0.08 0 0 0.08 166.43 360.57)"  >
<path style="stroke: none; stroke-width: 1; stroke-dasharray: none; stroke-linecap: butt; stroke-dashoffset: 0; stroke-linejoin: miter; stroke-miterlimit: 4; fill: rgb(16,75,50); fill-rule: nonzero; opacity: 1;"  transform=" translate(-91, -78.75)" d="M 91 0 L 181.933 157.5 H 0.0673294 L 91 0 Z" stroke-linecap="round" />
</g>
<g transform="matrix(0.05 0 0 0.05 219.16 346.08)"  >
<path style="stroke: none; stroke-width: 1; stroke-dasharray: none; stroke-linecap: butt; stroke-dashoffset: 0; stroke-linejoin: miter; stroke-miterlimit: 4; fill: rgb(16,75,50); fill-rule: nonzero; opacity: 1;"  transform=" translate(-91, -78.75)" d="M 91 0 L 181.933 157.5 H 0.0673294 L 91 0 Z" stroke-linecap="round" />
</g>
<g transform="matrix(0.11 0 0 0.11 398.08 386.25)"  >
<path style="stroke: none; stroke-width: 1; stroke-dasharray: none; stroke-linecap: butt; stroke-dashoffset: 0; stroke-linejoin: miter; stroke-miterlimit: 4; fill: rgb(16,75,50); fill-rule: nonzero; opacity: 1;"  transform=" translate(-91, -78.75)" d="M 91 0 L 181.933 157.5 H 0.0673294 L 91 0 Z" stroke-linecap="round" />
</g>
<g transform="matrix(0.13 0 0 0.13 431.84 352.92)"  >
<path style="stroke: none; stroke-width: 1; stroke-dasharray: none; stroke-linecap: butt; stroke-dashoffset: 0; stroke-linejoin: miter; stroke-miterlimit: 4; fill: rgb(16,75,50); fill-rule: nonzero; opacity: 1;"  transform=" translate(-91, -78.75)" d="M 91 0 L 181.933 157.5 H 0.0673294 L 91 0 Z" stroke-linecap="round" />
</g>
<g transform="matrix(0.09 0 0 0.09 487.9 348.18)"  >
<path style="stroke: none; stroke-width: 1; stroke-dasharray: none; stroke-linecap: butt; stroke-dashoffset: 0; stroke-linejoin: miter; stroke-miterlimit: 4; fill: rgb(16,75,50); fill-rule: nonzero; opacity: 1;"  transform=" translate(-91, -78.75)" d="M 91 0 L 181.933 157.5 H 0.0673294 L 91 0 Z" stroke-linecap="round" />
</g>
<g transform="matrix(0.07 0 0 0.07 553.69 354.35)"  >
<path style="stroke: none; stroke-width: 1; stroke-dasharray: none; stroke-linecap: butt; stroke-dashoffset: 0; stroke-linejoin: miter; stroke-miterlimit: 4; fill: rgb(16,75,50); fill-rule: nonzero; opacity: 1;"  transform=" translate(-91, -78.75)" d="M 91 0 L 181.933 157.5 H 0.0673294 L 91 0 Z" stroke-linecap="round" />
</g>
<g transform="matrix(0.09 0 0 0.09 134.7 393.85)"  >
<path style="stroke: none; stroke-width: 1; stroke-dasharray: none; stroke-linecap: butt; stroke-dashoffset: 0; stroke-linejoin: miter; stroke-miterlimit: 4; fill: rgb(16,75,50); fill-rule: nonzero; opacity: 1;"  transform=" translate(-91, -78.75)" d="M 91 0 L 181.933 157.5 H 0.0673294 L 91 0 Z" stroke-linecap="round" />
</g>
<g transform="matrix(0.07 0 0 0.07 180.32 410.53)"  >
<path style="stroke: none; stroke-width: 1; stroke-dasharray: none; stroke-linecap: butt; stroke-dashoffset: 0; stroke-linejoin: miter; stroke-miterlimit: 4; fill: rgb(16,75,50); fill-rule: nonzero; opacity: 1;"  transform=" translate(-91, -78.75)" d="M 91 0 L 181.933 157.5 H 0.0673294 L 91 0 Z" stroke-linecap="round" />
</g>
<g transform="matrix(0.04 0 0 0.04 240.76 431.1)"  >
<path style="stroke: none; stroke-width: 1; stroke-dasharray: none; stroke-linecap: butt; stroke-dashoffset: 0; stroke-linejoin: miter; stroke-miterlimit: 4; fill: rgb(16,75,50); fill-rule: nonzero; opacity: 1;"  transform=" translate(-91, -78.75)" d="M 91 0 L 181.933 157.5 H 0.0673294 L 91 0 Z" stroke-linecap="round" />
</g>
<g transform="matrix(0.11 0 0 0.11 336.93 409.89)"  >
<path style="stroke: none; stroke-width: 1; stroke-dasharray: none; stroke-linecap: butt; stroke-dashoffset: 0; stroke-linejoin: miter; stroke-miterlimit: 4; fill: rgb(16,75,50); fill-rule: nonzero; opacity: 1;"  transform=" translate(-91, -78.75)" d="M 91 0 L 181.933 157.5 H 0.0673294 L 91 0 Z" stroke-linecap="round" />
</g>
<g transform="matrix(0.07 0 0 0.07 421.61 431.67)"  >
<path style="stroke: none; stroke-width: 1; stroke-dasharray: none; stroke-linecap: butt; stroke-dashoffset: 0; stroke-linejoin: miter; stroke-miterlimit: 4; fill: rgb(16,75,50); fill-rule: nonzero; opacity: 1;"  transform=" translate(-91, -78.75)" d="M 91 0 L 181.933 157.5 H 0.0673294 L 91 0 Z" stroke-linecap="round" />
</g>
<g transform="matrix(0.07 0 0 0.07 466.47 423.94)"  >
<path style="stroke: none; stroke-width: 1; stroke-dasharray: none; stroke-linecap: butt; stroke-dashoffset: 0; stroke-linejoin: miter; stroke-miterlimit: 4; fill: rgb(16,75,50); fill-rule: nonzero; opacity: 1;"  transform=" translate(-91, -78.75)" d="M 91 0 L 181.933 157.5 H 0.0673294 L 91 0 Z" stroke-linecap="round" />
</g>
<g transform="matrix(0.12 0 0 0.12 542.08 387.93)"  >
<path style="stroke: none; stroke-width: 1; stroke-dasharray: none; stroke-linecap: butt; stroke-dashoffset: 0; stroke-linejoin: miter; stroke-miterlimit: 4; fill: rgb(16,75,50); fill-rule: nonzero; opacity: 1;"  transform=" translate(-91, -78.75)" d="M 91 0 L 181.933 157.5 H 0.0673294 L 91 0 Z" stroke-linecap="round" />
</g>
<g transform="matrix(0.11 0 0 0.11 55.59 485.51)"  >
<path style="stroke: none; stroke-width: 1; stroke-dasharray: none; stroke-linecap: butt; stroke-dashoffset: 0; stroke-linejoin: miter; stroke-miterlimit: 4; fill: rgb(16,75,50); fill-rule: nonzero; opacity: 1;"  transform=" translate(-91, -78.75)" d="M 91 0 L 181.933 157.5 H 0.0673294 L 91 0 Z" stroke-linecap="round" />
</g>
<g transform="matrix(0.08 0 0 0.08 124.41 459.68)"  >
<path style="stroke: none; stroke-width: 1; stroke-dasharray: none; stroke-linecap: butt; stroke-dashoffset: 0; stroke-linejoin: miter; stroke-miterlimit: 4; fill: rgb(16,75,50); fill-rule: nonzero; opacity: 1;"  transform=" translate(-91, -78.75)" d="M 91 0 L 181.933 157.5 H 0.0673294 L 91 0 Z" stroke-linecap="round" />
</g>
<g transform="matrix(0.06 0 0 0.06 193.02 461.7)"  >
<path style="stroke: none; stroke-width: 1; stroke-dasharray: none; stroke-linecap: butt; stroke-dashoffset: 0; stroke-linejoin: miter; stroke-miterlimit: 4; fill: rgb(16,75,50); fill-rule: nonzero; opacity: 1;"  transform=" translate(-91, -78.75)" d="M 91 0 L 181.933 157.5 H 0.0673294 L 91 0 Z" stroke-linecap="round" />
</g>
<g transform="matrix(0.12 0 0 0.12 268.64 482.1)"  >
<path style="stroke: none; stroke-width: 1; stroke-dasharray: none; stroke-linecap: butt; stroke-dashoffset: 0; stroke-linejoin: miter; stroke-miterlimit: 4; fill: rgb(16,75,50); fill-rule: nonzero; opacity: 1;"  transform=" translate(-91, -78.75)" d="M 91 0 L 181.933 157.5 H 0.0673294 L 91 0 Z" stroke-linecap="round" />
</g>
<g transform="matrix(0.13 0 0 0.13 313.3 477.56)"  >
<path style="stroke: none; stroke-width: 1; stroke-dasharray: none; stroke-linecap: butt; stroke-dashoffset: 0; stroke-linejoin: miter; stroke-miterlimit: 4; fill: rgb(16,75,50); fill-rule: nonzero; opacity: 1;"  transform=" translate(-91, -78.75)" d="M 91 0 L 181.933 157.5 H 0.0673294 L 91 0 Z" stroke-linecap="round" />
</g>
<g transform="matrix(0.11 0 0 0.11 402.65 465.41)"  >
<path style="stroke: none; stroke-width: 1; stroke-dasharray: none; stroke-linecap: butt; stroke-dashoffset: 0; stroke-linejoin: miter; stroke-miterlimit: 4; fill: rgb(16,75,50); fill-rule: nonzero; opacity: 1;"  transform=" translate(-91, -78.75)" d="M 91 0 L 181.933 157.5 H 0.0673294 L 91 0 Z" stroke-linecap="round" />
</g>
<g transform="matrix(0.07 0 0 0.07 479.18 489.33)"  >
<path style="stroke: none; stroke-width: 1; stroke-dasharray: none; stroke-linecap: butt; stroke-dashoffset: 0; stroke-linejoin: miter; stroke-miterlimit: 4; fill: rgb(16,75,50); fill-rule: nonzero; opacity: 1;"  transform=" translate(-91, -78.75)" d="M 91 0 L 181.933 157.5 H 0.0673294 L 91 0 Z" stroke-linecap="round" />
</g>
<g transform="matrix(0.07 0 0 0.07 99.93 542.62)"  >
<path style="stroke: none; stroke-width: 1; stroke-dasharray: none; stroke-linecap: butt; stroke-dashoffset: 0; stroke-linejoin: miter; stroke-miterlimit: 4; fill: rgb(16,75,50); fill-rule: nonzero; opacity: 1;"  transform=" translate(-91, -78.75)" d="M 91 0 L 181.933 157.5 H 0.0673294 L 91 0 Z" stroke-linecap="round" />
</g>
<g transform="matrix(0.1 0 0 0.1 215.9 550.68)"  >
<path style="stroke: none; stroke-width: 1; stroke-dasharray: none; stroke-linecap: butt; stroke-dashoffset: 0; stroke-linejoin: miter; stroke-miterlimit: 4; fill: rgb(16,75,50); fill-rule: nonzero; opacity: 1;"  transform=" translate(-91, -78.75)" d="M 91 0 L 181.933 157.5 H 0.0673294 L 91 0 Z" stroke-linecap="round" />
</g>
<g transform="matrix(0.13 0 0 0.13 335.06 553.31)"  >
<path style="stroke: none; stroke-width: 1; stroke-dasharray: none; stroke-linecap: butt; stroke-dashoffset: 0; stroke-linejoin: miter; stroke-miterlimit: 4; fill: rgb(16,75,50); fill-rule: nonzero; opacity: 1;"  transform=" translate(-91, -78.75)" d="M 91 0 L 181.933 157.5 H 0.0673294 L 91 0 Z" stroke-linecap="round" />
</g>
<g transform="matrix(0.05 0 0 0.05 487.65 533.98)"  >
<path style="stroke: none; stroke-width: 1; stroke-dasharray: none; stroke-linecap: butt; stroke-dashoffset: 0; stroke-linejoin: miter; stroke-miterlimit: 4; fill: rgb(16,75,50); fill-rule: nonzero; opacity: 1;"  transform=" translate(-91, -78.75)" d="M 91 0 L 181.933 157.5 H 0.0673294 L 91 0 Z" stroke-linecap="round" />
</g>
</svg>