<?xml version="1.0" encoding="UTF-8" standalone="no" ?>
<!DOCTYPE svg PUBLIC "-//W3C//DTD SVG 1.1//EN" "http://www.w3.org/Graphics/SVG/1.1/DTD/svg11.dtd">
<svg xmlns="http://www.w3.org/2000/svg" xmlns:xlink="http://www.w3.org/1999/xlink" version="1.1" width="600" height="600" viewBox="0 0 600 600" xml:space="preserve">
<desc>Created with Fabric.js 4.0.0-beta.8</desc>
<defs>
</defs>
<g transform="matrix(1 0 0 1 300.5 300.5)"  >
<rect style="stroke: none; stroke-width: 1; stroke-dasharray: none; stroke-linecap: butt; stroke-dashoffset: 0; stroke-linejoin: miter; stroke-miterlimit: 4; fill: rgb(255,255,255); fill-rule: nonzero; opacity: 1;"  x="-300" y="-300" rx="0" ry="0" width="600" height="600" />
</g>
<g transform="matrix(0 0.07 -0.07 0 25.89 31.77)"  >
<path style="stroke: none; stroke-width: 1; stroke-dasharray: none; stroke-linecap: butt; stroke-dashoffset: 0; stroke-linejoin: miter; stroke-miterlimit: 4; fill: rgb(87,89,136); fill-rule: nonzero; opacity: 1;"  transform=" translate(-91, -78.75)" d="M 91 0 L 181.933 157.5 H 0.0673294 L 91 0 Z" stroke-linecap="round" />
</g>
<g transform="matrix(-0.01 0.05 -0.05 -0.01 261.77 21.65)"  >
<path style="stroke: none; stroke-width: 1; stroke-dasharray: none; stroke-linecap: butt; stroke-dashoffset: 0; stroke-linejoin: miter; stroke-miterlimit: 4; fill: rgb(87,89,136); fill-rule: nonzero; opacity: 1;"  transform=" translate(-91, -78.75)" d="M 91 0 L 181.933 157.5 H 0.0673294 L 91 0 Z" stroke-linecap="round" />
</g>
<g transform="matrix(-0.07 0.02 -0.02 -0.07 365.26 39.46)"  >
<path style="stroke: none; stroke-width: 1; stroke-dasharray: none; stroke-linecap: butt; stroke-dashoffset: 0; stroke-linejoin: miter; stroke-miterlimit: 4; fill: rgb(87,89,136); fill-rule: nonzero; opacity: 1;"  transform=" translate(-91, -78.75)" d="M 91 0 L 181.933 157.5 H 0.0673294 L 91 0 Z" stroke-linecap="round" />
</g>
<g transform="matrix(-0.06 0.05 -0.05 -0.06 468.47 11.71)"  >
<path style="stroke: none; stroke-width: 1; stroke-dasharray: none; stroke-linecap: butt; stroke-dashoffset: 0; stroke-linejoin: miter; stroke-miterlimit: 4; fill: rgb(87,89,136); fill-rule: nonzero; opacity: 1;"  transform=" translate(-91, -78.75)" d="M 91 0 L 181.933 157.5 H 0.0673294 L 91 0 Z" stroke-linecap="round" />
</g>
<g transform="matrix(0.01 0.04 -0.04 0.01 63.64 73.67)"  >
<path style="stroke: none; stroke-width: 1; stroke-dasharray: none; stroke-linecap: butt; stroke-dashoffset: 0; stroke-linejoin: miter; stroke-miterlimit: 4; fill: rgb(87,89,136); fill-rule: nonzero; opacity: 1;"  transform=" translate(-91, -78.75)" d="M 91 0 L 181.933 157.5 H 0.0673294 L 91 0 Z" stroke-linecap="round" />
</g>
<g transform="matrix(0.02 0.07 -0.07 0.02 159.38 109.91)"  >
<path style="stroke: none; stroke-width: 1; stroke-dasharray: none; stroke-linecap: butt; stroke-dashoffset: 0; stroke-linejoin: miter; stroke-miterlimit: 4; fill: rgb(87,89,136); fill-rule: nonzero; opacity: 1;"  transform=" translate(-91, -78.75)" d="M 91 0 L 181.933 157.5 H 0.0673294 L 91 0 Z" stroke-linecap="round" />
</g>
<g transform="matrix(0.03 -0.07 0.07 0.03 243.11 57.68)"  >
<path style="stroke: none; stroke-width: 1; stroke-dasharray: none; stroke-linecap: butt; stroke-dashoffset: 0; stroke-linejoin: miter; stroke-miterlimit: 4; fill: rgb(87,89,136); fill-rule: nonzero; opacity: 1;"  transform=" translate(-91, -78.75)" d="M 91 0 L 181.933 157.5 H 0.0673294 L 91 0 Z" stroke-linecap="round" />
</g>
<g transform="matrix(-0.02 -0.07 0.07 -0.02 316.84 78.15)"  >
<path style="stroke: none; stroke-width: 1; stroke-dasharray: none; stroke-linecap: butt; stroke-dashoffset: 0; stroke-linejoin: miter; stroke-miterlimit: 4; fill: rgb(87,89,136); fill-rule: nonzero; opacity: 1;"  transform=" translate(-91, -78.75)" d="M 91 0 L 181.933 157.5 H 0.0673294 L 91 0 Z" stroke-linecap="round" />
</g>
<g transform="matrix(-0.05 0.01 -0.01 -0.05 363.42 106.65)"  >
<path style="stroke: none; stroke-width: 1; stroke-dasharray: none; stroke-linecap: butt; stroke-dashoffset: 0; stroke-linejoin: miter; stroke-miterlimit: 4; fill: rgb(87,89,136); fill-rule: nonzero; opacity: 1;"  transform=" translate(-91, -78.75)" d="M 91 0 L 181.933 157.5 H 0.0673294 L 91 0 Z" stroke-linecap="round" />
</g>
<g transform="matrix(0.04 -0.03 0.03 0.04 443.53 110.33)"  >
<path style="stroke: none; stroke-width: 1; stroke-dasharray: none; stroke-linecap: butt; stroke-dashoffset: 0; stroke-linejoin: miter; stroke-miterlimit: 4; fill: rgb(87,89,136); fill-rule: nonzero; opacity: 1;"  transform=" translate(-91, -78.75)" d="M 91 0 L 181.933 157.5 H 0.0673294 L 91 0 Z" stroke-linecap="round" />
</g>
<g transform="matrix(0 0.05 -0.05 0 554.19 94.47)"  >
<path style="stroke: none; stroke-width: 1; stroke-dasharray: none; stroke-linecap: butt; stroke-dashoffset: 0; stroke-linejoin: miter; stroke-miterlimit: 4; fill: rgb(87,89,136); fill-rule: nonzero; opacity: 1;"  transform=" translate(-91, -78.75)" d="M 91 0 L 181.933 157.5 H 0.0673294 L 91 0 Z" stroke-linecap="round" />
</g>
<g transform="matrix(0 -0.04 0.04 0 82.5 136.08)"  >
<path style="stroke: none; stroke-width: 1; stroke-dasharray: none; stroke-linecap: butt; stroke-dashoffset: 0; stroke-linejoin: miter; stroke-miterlimit: 4; fill: rgb(87,89,136); fill-rule: nonzero; opacity: 1;"  transform=" translate(-91, -78.75)" d="M 91 0 L 181.933 157.5 H 0.0673294 L 91 0 Z" stroke-linecap="round" />
</g>
<g transform="matrix(0.07 0.03 -0.03 0.07 172.13 138.34)"  >
<path style="stroke: none; stroke-width: 1; stroke-dasharray: none; stroke-linecap: butt; stroke-dashoffset: 0; stroke-linejoin: miter; stroke-miterlimit: 4; fill: rgb(87,89,136); fill-rule: nonzero; opacity: 1;"  transform=" translate(-91, -78.75)" d="M 91 0 L 181.933 157.5 H 0.0673294 L 91 0 Z" stroke-linecap="round" />
</g>
<g transform="matrix(-0.04 0.03 -0.03 -0.04 251.03 160.69)"  >
<path style="stroke: none; stroke-width: 1; stroke-dasharray: none; stroke-linecap: butt; stroke-dashoffset: 0; stroke-linejoin: miter; stroke-miterlimit: 4; fill: rgb(87,89,136); fill-rule: nonzero; opacity: 1;"  transform=" translate(-91, -78.75)" d="M 91 0 L 181.933 157.5 H 0.0673294 L 91 0 Z" stroke-linecap="round" />
</g>
<g transform="matrix(0.01 -0.07 0.07 0.01 333.81 160.1)"  >
<path style="stroke: none; stroke-width: 1; stroke-dasharray: none; stroke-linecap: butt; stroke-dashoffset: 0; stroke-linejoin: miter; stroke-miterlimit: 4; fill: rgb(87,89,136); fill-rule: nonzero; opacity: 1;"  transform=" translate(-91, -78.75)" d="M 91 0 L 181.933 157.5 H 0.0673294 L 91 0 Z" stroke-linecap="round" />
</g>
<g transform="matrix(0.05 -0.05 0.05 0.05 368.87 186.03)"  >
<path style="stroke: none; stroke-width: 1; stroke-dasharray: none; stroke-linecap: butt; stroke-dashoffset: 0; stroke-linejoin: miter; stroke-miterlimit: 4; fill: rgb(87,89,136); fill-rule: nonzero; opacity: 1;"  transform=" translate(-91, -78.75)" d="M 91 0 L 181.933 157.5 H 0.0673294 L 91 0 Z" stroke-linecap="round" />
</g>
<g transform="matrix(-0.04 0.02 -0.02 -0.04 482.65 168.14)"  >
<path style="stroke: none; stroke-width: 1; stroke-dasharray: none; stroke-linecap: butt; stroke-dashoffset: 0; stroke-linejoin: miter; stroke-miterlimit: 4; fill: rgb(87,89,136); fill-rule: nonzero; opacity: 1;"  transform=" translate(-91, -78.75)" d="M 91 0 L 181.933 157.5 H 0.0673294 L 91 0 Z" stroke-linecap="round" />
</g>
<g transform="matrix(-0.04 0.04 -0.04 -0.04 506.87 159.45)"  >
<path style="stroke: none; stroke-width: 1; stroke-dasharray: none; stroke-linecap: butt; stroke-dashoffset: 0; stroke-linejoin: miter; stroke-miterlimit: 4; fill: rgb(87,89,136); fill-rule: nonzero; opacity: 1;"  transform=" translate(-91, -78.75)" d="M 91 0 L 181.933 157.5 H 0.0673294 L 91 0 Z" stroke-linecap="round" />
</g>
<g transform="matrix(-0.02 -0.07 0.07 -0.02 594.37 186.97)"  >
<path style="stroke: none; stroke-width: 1; stroke-dasharray: none; stroke-linecap: butt; stroke-dashoffset: 0; stroke-linejoin: miter; stroke-miterlimit: 4; fill: rgb(87,89,136); fill-rule: nonzero; opacity: 1;"  transform=" translate(-91, -78.75)" d="M 91 0 L 181.933 157.5 H 0.0673294 L 91 0 Z" stroke-linecap="round" />
</g>
<g transform="matrix(0.04 0.03 -0.03 0.04 67.77 244.94)"  >
<path style="stroke: none; stroke-width: 1; stroke-dasharray: none; stroke-linecap: butt; stroke-dashoffset: 0; stroke-linejoin: miter; stroke-miterlimit: 4; fill: rgb(87,89,136); fill-rule: nonzero; opacity: 1;"  transform=" translate(-91, -78.75)" d="M 91 0 L 181.933 157.5 H 0.0673294 L 91 0 Z" stroke-linecap="round" />
</g>
<g transform="matrix(0.01 -0.04 0.04 0.01 137.23 221.68)"  >
<path style="stroke: none; stroke-width: 1; stroke-dasharray: none; stroke-linecap: butt; stroke-dashoffset: 0; stroke-linejoin: miter; stroke-miterlimit: 4; fill: rgb(87,89,136); fill-rule: nonzero; opacity: 1;"  transform=" translate(-91, -78.75)" d="M 91 0 L 181.933 157.5 H 0.0673294 L 91 0 Z" stroke-linecap="round" />
</g>
<g transform="matrix(0.02 0.08 -0.08 0.02 235.17 247.74)"  >
<path style="stroke: none; stroke-width: 1; stroke-dasharray: none; stroke-linecap: butt; stroke-dashoffset: 0; stroke-linejoin: miter; stroke-miterlimit: 4; fill: rgb(87,89,136); fill-rule: nonzero; opacity: 1;"  transform=" translate(-91, -78.75)" d="M 91 0 L 181.933 157.5 H 0.0673294 L 91 0 Z" stroke-linecap="round" />
</g>
<g transform="matrix(0.04 0.02 -0.02 0.04 328.47 221.05)"  >
<path style="stroke: none; stroke-width: 1; stroke-dasharray: none; stroke-linecap: butt; stroke-dashoffset: 0; stroke-linejoin: miter; stroke-miterlimit: 4; fill: rgb(87,89,136); fill-rule: nonzero; opacity: 1;"  transform=" translate(-91, -78.75)" d="M 91 0 L 181.933 157.5 H 0.0673294 L 91 0 Z" stroke-linecap="round" />
</g>
<g transform="matrix(-0.03 -0.04 0.04 -0.03 400.81 224.26)"  >
<path style="stroke: none; stroke-width: 1; stroke-dasharray: none; stroke-linecap: butt; stroke-dashoffset: 0; stroke-linejoin: miter; stroke-miterlimit: 4; fill: rgb(87,89,136); fill-rule: nonzero; opacity: 1;"  transform=" translate(-91, -78.75)" d="M 91 0 L 181.933 157.5 H 0.0673294 L 91 0 Z" stroke-linecap="round" />
</g>
<g transform="matrix(0.04 0.03 -0.03 0.04 444.7 250.26)"  >
<path style="stroke: none; stroke-width: 1; stroke-dasharray: none; stroke-linecap: butt; stroke-dashoffset: 0; stroke-linejoin: miter; stroke-miterlimit: 4; fill: rgb(87,89,136); fill-rule: nonzero; opacity: 1;"  transform=" translate(-91, -78.75)" d="M 91 0 L 181.933 157.5 H 0.0673294 L 91 0 Z" stroke-linecap="round" />
</g>
<g transform="matrix(-0.06 0.04 -0.04 -0.06 525.53 240.49)"  >
<path style="stroke: none; stroke-width: 1; stroke-dasharray: none; stroke-linecap: butt; stroke-dashoffset: 0; stroke-linejoin: miter; stroke-miterlimit: 4; fill: rgb(87,89,136); fill-rule: nonzero; opacity: 1;"  transform=" translate(-91, -78.75)" d="M 91 0 L 181.933 157.5 H 0.0673294 L 91 0 Z" stroke-linecap="round" />
</g>
<g transform="matrix(-0.05 0.01 -0.01 -0.05 34.52 298.08)"  >
<path style="stroke: none; stroke-width: 1; stroke-dasharray: none; stroke-linecap: butt; stroke-dashoffset: 0; stroke-linejoin: miter; stroke-miterlimit: 4; fill: rgb(87,89,136); fill-rule: nonzero; opacity: 1;"  transform=" translate(-91, -78.75)" d="M 91 0 L 181.933 157.5 H 0.0673294 L 91 0 Z" stroke-linecap="round" />
</g>
<g transform="matrix(0.04 0.03 -0.03 0.04 69.91 301.8)"  >
<path style="stroke: none; stroke-width: 1; stroke-dasharray: none; stroke-linecap: butt; stroke-dashoffset: 0; stroke-linejoin: miter; stroke-miterlimit: 4; fill: rgb(87,89,136); fill-rule: nonzero; opacity: 1;"  transform=" translate(-91, -78.75)" d="M 91 0 L 181.933 157.5 H 0.0673294 L 91 0 Z" stroke-linecap="round" />
</g>
<g transform="matrix(-0.04 -0.03 0.03 -0.04 175.38 280.12)"  >
<path style="stroke: none; stroke-width: 1; stroke-dasharray: none; stroke-linecap: butt; stroke-dashoffset: 0; stroke-linejoin: miter; stroke-miterlimit: 4; fill: rgb(87,89,136); fill-rule: nonzero; opacity: 1;"  transform=" translate(-91, -78.75)" d="M 91 0 L 181.933 157.5 H 0.0673294 L 91 0 Z" stroke-linecap="round" />
</g>
<g transform="matrix(0.05 -0.06 0.06 0.05 211.7 284.47)"  >
<path style="stroke: none; stroke-width: 1; stroke-dasharray: none; stroke-linecap: butt; stroke-dashoffset: 0; stroke-linejoin: miter; stroke-miterlimit: 4; fill: rgb(87,89,136); fill-rule: nonzero; opacity: 1;"  transform=" translate(-91, -78.75)" d="M 91 0 L 181.933 157.5 H 0.0673294 L 91 0 Z" stroke-linecap="round" />
</g>
<g transform="matrix(-0.06 0 0 -0.06 287.98 334.15)"  >
<path style="stroke: none; stroke-width: 1; stroke-dasharray: none; stroke-linecap: butt; stroke-dashoffset: 0; stroke-linejoin: miter; stroke-miterlimit: 4; fill: rgb(87,89,136); fill-rule: nonzero; opacity: 1;"  transform=" translate(-91, -78.75)" d="M 91 0 L 181.933 157.5 H 0.0673294 L 91 0 Z" stroke-linecap="round" />
</g>
<g transform="matrix(0.03 -0.06 0.06 0.03 376.95 298.83)"  >
<path style="stroke: none; stroke-width: 1; stroke-dasharray: none; stroke-linecap: butt; stroke-dashoffset: 0; stroke-linejoin: miter; stroke-miterlimit: 4; fill: rgb(87,89,136); fill-rule: nonzero; opacity: 1;"  transform=" translate(-91, -78.75)" d="M 91 0 L 181.933 157.5 H 0.0673294 L 91 0 Z" stroke-linecap="round" />
</g>
<g transform="matrix(0.02 -0.06 0.06 0.02 430.83 279.42)"  >
<path style="stroke: none; stroke-width: 1; stroke-dasharray: none; stroke-linecap: butt; stroke-dashoffset: 0; stroke-linejoin: miter; stroke-miterlimit: 4; fill: rgb(87,89,136); fill-rule: nonzero; opacity: 1;"  transform=" translate(-91, -78.75)" d="M 91 0 L 181.933 157.5 H 0.0673294 L 91 0 Z" stroke-linecap="round" />
</g>
<g transform="matrix(-0.01 -0.04 0.04 -0.01 547.62 335.63)"  >
<path style="stroke: none; stroke-width: 1; stroke-dasharray: none; stroke-linecap: butt; stroke-dashoffset: 0; stroke-linejoin: miter; stroke-miterlimit: 4; fill: rgb(87,89,136); fill-rule: nonzero; opacity: 1;"  transform=" translate(-91, -78.75)" d="M 91 0 L 181.933 157.5 H 0.0673294 L 91 0 Z" stroke-linecap="round" />
</g>
<g transform="matrix(-0.05 -0.01 0.01 -0.05 56.94 368.66)"  >
<path style="stroke: none; stroke-width: 1; stroke-dasharray: none; stroke-linecap: butt; stroke-dashoffset: 0; stroke-linejoin: miter; stroke-miterlimit: 4; fill: rgb(87,89,136); fill-rule: nonzero; opacity: 1;"  transform=" translate(-91, -78.75)" d="M 91 0 L 181.933 157.5 H 0.0673294 L 91 0 Z" stroke-linecap="round" />
</g>
<g transform="matrix(-0.06 0.01 -0.01 -0.06 144.88 365.21)"  >
<path style="stroke: none; stroke-width: 1; stroke-dasharray: none; stroke-linecap: butt; stroke-dashoffset: 0; stroke-linejoin: miter; stroke-miterlimit: 4; fill: rgb(87,89,136); fill-rule: nonzero; opacity: 1;"  transform=" translate(-91, -78.75)" d="M 91 0 L 181.933 157.5 H 0.0673294 L 91 0 Z" stroke-linecap="round" />
</g>
<g transform="matrix(0.04 0.04 -0.04 0.04 242.32 395.22)"  >
<path style="stroke: none; stroke-width: 1; stroke-dasharray: none; stroke-linecap: butt; stroke-dashoffset: 0; stroke-linejoin: miter; stroke-miterlimit: 4; fill: rgb(87,89,136); fill-rule: nonzero; opacity: 1;"  transform=" translate(-91, -78.75)" d="M 91 0 L 181.933 157.5 H 0.0673294 L 91 0 Z" stroke-linecap="round" />
</g>
<g transform="matrix(0 0.08 -0.08 0 329.82 354.01)"  >
<path style="stroke: none; stroke-width: 1; stroke-dasharray: none; stroke-linecap: butt; stroke-dashoffset: 0; stroke-linejoin: miter; stroke-miterlimit: 4; fill: rgb(87,89,136); fill-rule: nonzero; opacity: 1;"  transform=" translate(-91, -78.75)" d="M 91 0 L 181.933 157.5 H 0.0673294 L 91 0 Z" stroke-linecap="round" />
</g>
<g transform="matrix(-0.04 -0.01 0.01 -0.04 402.56 365.21)"  >
<path style="stroke: none; stroke-width: 1; stroke-dasharray: none; stroke-linecap: butt; stroke-dashoffset: 0; stroke-linejoin: miter; stroke-miterlimit: 4; fill: rgb(87,89,136); fill-rule: nonzero; opacity: 1;"  transform=" translate(-91, -78.75)" d="M 91 0 L 181.933 157.5 H 0.0673294 L 91 0 Z" stroke-linecap="round" />
</g>
<g transform="matrix(-0.06 0.06 -0.06 -0.06 436.46 391.62)"  >
<path style="stroke: none; stroke-width: 1; stroke-dasharray: none; stroke-linecap: butt; stroke-dashoffset: 0; stroke-linejoin: miter; stroke-miterlimit: 4; fill: rgb(87,89,136); fill-rule: nonzero; opacity: 1;"  transform=" translate(-91, -78.75)" d="M 91 0 L 181.933 157.5 H 0.0673294 L 91 0 Z" stroke-linecap="round" />
</g>
<g transform="matrix(-0.07 -0.02 0.02 -0.07 542.51 405.7)"  >
<path style="stroke: none; stroke-width: 1; stroke-dasharray: none; stroke-linecap: butt; stroke-dashoffset: 0; stroke-linejoin: miter; stroke-miterlimit: 4; fill: rgb(87,89,136); fill-rule: nonzero; opacity: 1;"  transform=" translate(-91, -78.75)" d="M 91 0 L 181.933 157.5 H 0.0673294 L 91 0 Z" stroke-linecap="round" />
</g>
<g transform="matrix(0.01 -0.04 0.04 0.01 593.95 360.96)"  >
<path style="stroke: none; stroke-width: 1; stroke-dasharray: none; stroke-linecap: butt; stroke-dashoffset: 0; stroke-linejoin: miter; stroke-miterlimit: 4; fill: rgb(87,89,136); fill-rule: nonzero; opacity: 1;"  transform=" translate(-91, -78.75)" d="M 91 0 L 181.933 157.5 H 0.0673294 L 91 0 Z" stroke-linecap="round" />
</g>
<g transform="matrix(0.04 -0.01 0.01 0.04 63.99 456.91)"  >
<path style="stroke: none; stroke-width: 1; stroke-dasharray: none; stroke-linecap: butt; stroke-dashoffset: 0; stroke-linejoin: miter; stroke-miterlimit: 4; fill: rgb(87,89,136); fill-rule: nonzero; opacity: 1;"  transform=" translate(-91, -78.75)" d="M 91 0 L 181.933 157.5 H 0.0673294 L 91 0 Z" stroke-linecap="round" />
</g>
<g transform="matrix(-0.03 -0.05 0.05 -0.03 158.7 431.97)"  >
<path style="stroke: none; stroke-width: 1; stroke-dasharray: none; stroke-linecap: butt; stroke-dashoffset: 0; stroke-linejoin: miter; stroke-miterlimit: 4; fill: rgb(87,89,136); fill-rule: nonzero; opacity: 1;"  transform=" translate(-91, -78.75)" d="M 91 0 L 181.933 157.5 H 0.0673294 L 91 0 Z" stroke-linecap="round" />
</g>
<g transform="matrix(0.08 0.02 -0.02 0.08 224.21 456.42)"  >
<path style="stroke: none; stroke-width: 1; stroke-dasharray: none; stroke-linecap: butt; stroke-dashoffset: 0; stroke-linejoin: miter; stroke-miterlimit: 4; fill: rgb(87,89,136); fill-rule: nonzero; opacity: 1;"  transform=" translate(-91, -78.75)" d="M 91 0 L 181.933 157.5 H 0.0673294 L 91 0 Z" stroke-linecap="round" />
</g>
<g transform="matrix(0.02 -0.04 0.04 0.02 312.82 473.02)"  >
<path style="stroke: none; stroke-width: 1; stroke-dasharray: none; stroke-linecap: butt; stroke-dashoffset: 0; stroke-linejoin: miter; stroke-miterlimit: 4; fill: rgb(87,89,136); fill-rule: nonzero; opacity: 1;"  transform=" translate(-91, -78.75)" d="M 91 0 L 181.933 157.5 H 0.0673294 L 91 0 Z" stroke-linecap="round" />
</g>
<g transform="matrix(0.02 0.04 -0.04 0.02 370.54 465.68)"  >
<path style="stroke: none; stroke-width: 1; stroke-dasharray: none; stroke-linecap: butt; stroke-dashoffset: 0; stroke-linejoin: miter; stroke-miterlimit: 4; fill: rgb(87,89,136); fill-rule: nonzero; opacity: 1;"  transform=" translate(-91, -78.75)" d="M 91 0 L 181.933 157.5 H 0.0673294 L 91 0 Z" stroke-linecap="round" />
</g>
<g transform="matrix(0.05 -0.06 0.06 0.05 450 435.5)"  >
<path style="stroke: none; stroke-width: 1; stroke-dasharray: none; stroke-linecap: butt; stroke-dashoffset: 0; stroke-linejoin: miter; stroke-miterlimit: 4; fill: rgb(87,89,136); fill-rule: nonzero; opacity: 1;"  transform=" translate(-91, -78.75)" d="M 91 0 L 181.933 157.5 H 0.0673294 L 91 0 Z" stroke-linecap="round" />
</g>
<g transform="matrix(0.06 0.01 -0.01 0.06 522.09 462.02)"  >
<path style="stroke: none; stroke-width: 1; stroke-dasharray: none; stroke-linecap: butt; stroke-dashoffset: 0; stroke-linejoin: miter; stroke-miterlimit: 4; fill: rgb(87,89,136); fill-rule: nonzero; opacity: 1;"  transform=" translate(-91, -78.75)" d="M 91 0 L 181.933 157.5 H 0.0673294 L 91 0 Z" stroke-linecap="round" />
</g>
<g transform="matrix(-0.06 0.05 -0.05 -0.06 20.21 546.69)"  >
<path style="stroke: none; stroke-width: 1; stroke-dasharray: none; stroke-linecap: butt; stroke-dashoffset: 0; stroke-linejoin: miter; stroke-miterlimit: 4; fill: rgb(87,89,136); fill-rule: nonzero; opacity: 1;"  transform=" translate(-91, -78.75)" d="M 91 0 L 181.933 157.5 H 0.0673294 L 91 0 Z" stroke-linecap="round" />
</g>
<g transform="matrix(-0.08 -0.01 0.01 -0.08 112.9 534.78)"  >
<path style="stroke: none; stroke-width: 1; stroke-dasharray: none; stroke-linecap: butt; stroke-dashoffset: 0; stroke-linejoin: miter; stroke-miterlimit: 4; fill: rgb(87,89,136); fill-rule: nonzero; opacity: 1;"  transform=" translate(-91, -78.75)" d="M 91 0 L 181.933 157.5 H 0.0673294 L 91 0 Z" stroke-linecap="round" />
</g>
<g transform="matrix(-0.03 0.06 -0.06 -0.03 136.47 550.13)"  >
<path style="stroke: none; stroke-width: 1; stroke-dasharray: none; stroke-linecap: butt; stroke-dashoffset: 0; stroke-linejoin: miter; stroke-miterlimit: 4; fill: rgb(87,89,136); fill-rule: nonzero; opacity: 1;"  transform=" translate(-91, -78.75)" d="M 91 0 L 181.933 157.5 H 0.0673294 L 91 0 Z" stroke-linecap="round" />
</g>
<g transform="matrix(0.05 0.06 -0.06 0.05 258.4 501.74)"  >
<path style="stroke: none; stroke-width: 1; stroke-dasharray: none; stroke-linecap: butt; stroke-dashoffset: 0; stroke-linejoin: miter; stroke-miterlimit: 4; fill: rgb(87,89,136); fill-rule: nonzero; opacity: 1;"  transform=" translate(-91, -78.75)" d="M 91 0 L 181.933 157.5 H 0.0673294 L 91 0 Z" stroke-linecap="round" />
</g>
<g transform="matrix(0.04 0.04 -0.04 0.04 282.8 502.86)"  >
<path style="stroke: none; stroke-width: 1; stroke-dasharray: none; stroke-linecap: butt; stroke-dashoffset: 0; stroke-linejoin: miter; stroke-miterlimit: 4; fill: rgb(87,89,136); fill-rule: nonzero; opacity: 1;"  transform=" translate(-91, -78.75)" d="M 91 0 L 181.933 157.5 H 0.0673294 L 91 0 Z" stroke-linecap="round" />
</g>
<g transform="matrix(-0.06 -0.06 0.06 -0.06 363.12 541.68)"  >
<path style="stroke: none; stroke-width: 1; stroke-dasharray: none; stroke-linecap: butt; stroke-dashoffset: 0; stroke-linejoin: miter; stroke-miterlimit: 4; fill: rgb(87,89,136); fill-rule: nonzero; opacity: 1;"  transform=" translate(-91, -78.75)" d="M 91 0 L 181.933 157.5 H 0.0673294 L 91 0 Z" stroke-linecap="round" />
</g>
<g transform="matrix(0.03 0.04 -0.04 0.03 426.4 540.05)"  >
<path style="stroke: none; stroke-width: 1; stroke-dasharray: none; stroke-linecap: butt; stroke-dashoffset: 0; stroke-linejoin: miter; stroke-miterlimit: 4; fill: rgb(87,89,136); fill-rule: nonzero; opacity: 1;"  transform=" translate(-91, -78.75)" d="M 91 0 L 181.933 157.5 H 0.0673294 L 91 0 Z" stroke-linecap="round" />
</g>
<g transform="matrix(-0.07 -0.05 0.05 -0.07 532.64 546.78)"  >
<path style="stroke: none; stroke-width: 1; stroke-dasharray: none; stroke-linecap: butt; stroke-dashoffset: 0; stroke-linejoin: miter; stroke-miterlimit: 4; fill: rgb(87,89,136); fill-rule: nonzero; opacity: 1;"  transform=" translate(-91, -78.75)" d="M 91 0 L 181.933 157.5 H 0.0673294 L 91 0 Z" stroke-linecap="round" />
</g>
<g transform="matrix(-0.04 0 0 -0.04 24.29 591.07)"  >
<path style="stroke: none; stroke-width: 1; stroke-dasharray: none; stroke-linecap: butt; stroke-dashoffset: 0; stroke-linejoin: miter; stroke-miterlimit: 4; fill: rgb(87,89,136); fill-rule: nonzero; opacity: 1;"  transform=" translate(-91, -78.75)" d="M 91 0 L 181.933 157.5 H 0.0673294 L 91 0 Z" stroke-linecap="round" />
</g>
<g transform="matrix(-0.04 -0.07 0.07 -0.04 361.25 585.39)"  >
<path style="stroke: none; stroke-width: 1; stroke-dasharray: none; stroke-linecap: butt; stroke-dashoffset: 0; stroke-linejoin: miter; stroke-miterlimit: 4; fill: rgb(87,89,136); fill-rule: nonzero; opacity: 1;"  transform=" translate(-91, -78.75)" d="M 91 0 L 181.933 157.5 H 0.0673294 L 91 0 Z" stroke-linecap="round" />
</g>
<g transform="matrix(-0.01 0.05 -0.05 -0.01 445.85 575.69)"  >
<path style="stroke: none; stroke-width: 1; stroke-dasharray: none; stroke-linecap: butt; stroke-dashoffset: 0; stroke-linejoin: miter; stroke-miterlimit: 4; fill: rgb(87,89,136); fill-rule: nonzero; opacity: 1;"  transform=" translate(-91, -78.75)" d="M 91 0 L 181.933 157.5 H 0.0673294 L 91 0 Z" stroke-linecap="round" />
</g>
</svg>